<svg version="1.1" id="Layer_1" xmlns="http://www.w3.org/2000/svg" xmlns:xlink="http://www.w3.org/1999/xlink" x="0px" y="0px"
	 width="100%" viewBox="0 0 232 217" enable-background="new 0 0 232 217" xml:space="preserve">
<path fill="#FCFCFC" opacity="1.000000" stroke="none" 
	d="
M125.000000,218.000000 
	C83.743095,218.000000 42.486183,218.000000 1.000000,218.000000 
	C1.000000,180.646088 1.000000,143.291702 1.402067,105.491219 
	C6.956335,105.057701 4.478521,108.473022 3.907213,111.644852 
	C6.418603,109.233307 8.264854,107.460449 9.832933,105.954712 
	C7.665873,105.227570 5.826568,104.610397 3.991563,103.994675 
	C4.851620,102.626228 5.372690,101.797142 6.341378,100.255852 
	C3.938342,101.040527 2.469172,101.520264 1.000000,102.000000 
	C1.000000,68.399498 1.000000,34.799000 1.000000,1.000000 
	C41.354012,1.000000 81.708344,1.000000 122.300278,1.256531 
	C121.603958,1.849099 120.636131,2.112843 119.741455,2.532543 
	C112.176590,6.081283 108.823372,14.042087 111.439140,22.174175 
	C113.714638,29.248360 121.375687,34.027695 128.580826,32.867977 
	C136.506226,31.592331 142.056076,24.922386 142.106110,16.811298 
	C142.158234,8.361615 136.792618,4.157907 130.000000,1.000000 
	C164.297958,1.000000 198.595917,1.000000 232.946930,1.000000 
	C232.946930,73.223396 232.946930,145.446838 232.946930,218.000000 
	C198.313141,218.000000 163.625229,218.000000 128.457916,217.654602 
	C128.054916,216.623993 128.131302,215.938797 128.543823,215.213196 
	C129.607315,214.785706 130.334656,214.398590 131.410675,213.965088 
	C133.172958,211.945572 134.586533,209.972458 136.375702,208.087204 
	C137.354309,208.016052 137.957352,207.857056 138.560394,207.698074 
	C137.756729,207.491928 136.953049,207.285782 135.837570,206.906250 
	C134.492920,205.298447 133.667374,203.617126 132.355148,202.515518 
	C131.465408,201.768585 129.892166,201.835815 128.104874,201.417191 
	C130.402466,204.835556 131.935165,207.115952 134.263062,210.579407 
	C131.651260,209.795624 130.325623,209.397812 128.861023,208.711273 
	C127.966377,207.757294 127.210686,207.092056 125.856567,205.900009 
	C125.935822,207.491959 125.973427,208.247482 125.767906,209.009247 
	C125.203499,208.937378 124.881302,208.933319 124.379379,208.519531 
	C123.786102,208.534775 123.371613,209.033813 122.893867,209.729034 
	C122.787643,210.215149 122.857445,210.474762 122.576584,210.638809 
	C122.398651,211.071091 122.684158,211.568604 122.978165,212.032013 
	C122.986664,211.997925 122.937523,212.048203 122.685890,212.319641 
	C122.934738,213.100449 123.435219,213.609802 124.029221,214.356171 
	C124.408272,214.759460 124.693810,214.925751 125.006302,215.455170 
	C125.022171,216.545517 125.011093,217.272766 125.000000,218.000000 
M179.382767,167.069183 
	C179.587738,167.067825 179.790543,167.046066 180.401306,167.111603 
	C180.401306,167.111603 180.818741,167.186157 181.067825,167.802963 
	C181.450897,167.744583 181.833969,167.686188 182.217041,167.627792 
	C182.001984,167.257645 181.786942,166.887497 181.147461,165.792252 
	C181.140778,165.244614 181.134079,164.696991 181.111542,164.210449 
	C181.111542,164.210449 181.121201,164.171463 181.038498,163.333344 
	C180.058899,161.945526 179.079315,160.557709 177.914795,158.698547 
	C177.613129,159.449997 177.311462,160.201447 176.310272,161.010834 
	C176.537537,161.367447 176.764801,161.724060 176.992722,162.008347 
	C176.992722,162.008347 176.920441,162.011108 176.392166,162.354599 
	C176.446777,162.557434 176.501373,162.760254 175.902328,162.837128 
	C171.289368,161.971603 169.202026,164.831436 167.058609,168.831024 
	C168.914291,169.025513 170.259155,169.166473 171.573853,169.754913 
	C171.435562,170.111526 171.541428,170.368301 171.607819,170.597382 
	C171.607819,170.597382 171.506638,170.872223 170.530106,170.650024 
	C170.431671,171.150009 170.333237,171.649994 170.234818,172.149963 
	C170.606445,172.170013 170.978088,172.190063 171.546570,172.517426 
	C171.546570,172.517426 171.911423,172.508759 171.945984,172.577820 
	C171.945984,172.577820 172.022873,172.570557 171.118454,172.260544 
	C170.555878,172.847534 169.993317,173.434525 168.819519,173.838501 
	C168.551270,174.526794 168.283020,175.215073 167.086853,175.583191 
	C167.034241,176.719574 166.981628,177.855957 166.259796,179.108521 
	C165.941818,179.838226 165.623840,180.567917 165.305862,181.297623 
	C166.197632,181.234116 167.089401,181.170609 168.609894,180.670212 
	C168.552750,179.473511 168.495621,178.276794 169.227570,177.120209 
	C170.150208,176.756348 171.072845,176.392487 172.658203,176.037308 
	C172.895142,175.720459 173.132080,175.403595 174.046417,175.103500 
	C174.452560,174.397537 174.858704,173.691574 175.607590,172.846588 
	C175.816376,172.709717 176.000519,172.545242 176.542877,171.991455 
	C176.692230,171.680038 176.841568,171.368607 177.619125,171.123108 
	C177.755493,170.403366 177.891846,169.683609 178.274399,168.832870 
	C178.381302,168.632339 178.342392,168.466125 178.999069,167.996262 
	C179.025238,167.695160 179.051392,167.394043 179.382767,167.069183 
M216.499054,131.148483 
	C216.499054,131.148483 216.990891,131.170822 217.291016,131.745453 
	C217.497513,131.809097 217.704025,131.872757 218.822235,132.347733 
	C219.288101,132.160156 219.753983,131.972580 220.219849,131.785004 
	C219.845367,131.206100 219.470886,130.627213 219.930511,130.162598 
	C220.889023,130.106827 221.847534,130.051071 222.806046,129.995316 
	C222.832001,129.453110 222.857956,128.910919 222.883896,128.368729 
	C221.314728,128.368729 219.745544,128.368729 218.099274,127.462120 
	C218.219101,126.144882 218.338913,124.827644 218.469437,123.392693 
	C218.913498,123.392693 219.371445,123.468018 219.789490,123.371109 
	C220.192642,123.277664 220.554550,123.006401 221.501404,122.026627 
	C222.414505,122.300827 223.327606,122.575027 224.109177,123.573822 
	C227.700317,125.137947 227.700317,125.137947 228.862701,120.311920 
	C226.920883,121.381538 225.528336,122.148598 223.522736,122.692352 
	C222.969757,121.886795 222.416779,121.081230 221.866333,120.279335 
	C221.546753,121.163727 221.242996,122.004395 220.406799,122.207214 
	C215.430984,121.158890 215.320877,124.437248 214.738525,128.067474 
	C214.457626,128.642258 214.176743,129.217041 213.870880,130.742004 
	C214.193878,131.384995 214.516876,132.028000 214.839859,132.670990 
	C215.230255,132.141800 215.620651,131.612610 216.499054,131.148483 
M195.007843,147.002686 
	C195.007843,147.002686 195.102173,147.100174 194.460831,147.086914 
	C192.732742,147.710800 190.895279,148.295654 193.963455,151.450348 
	C194.243423,151.764114 194.523392,152.077866 194.700958,153.008438 
	C194.263855,154.095779 193.808060,155.177048 193.446503,156.288956 
	C193.428955,156.342926 194.493332,156.939789 194.622696,156.819611 
	C195.495270,156.009155 196.360413,155.143112 196.997726,154.147659 
	C197.301910,153.672531 197.101776,152.874527 197.720169,152.326309 
	C198.258179,151.641876 199.348877,150.460693 199.249008,150.349564 
	C198.210083,149.193634 196.979691,148.209793 195.909088,146.634338 
	C195.711502,146.378876 195.513901,146.123413 195.316330,145.867950 
	C195.246246,146.279083 195.176163,146.690231 195.007843,147.002686 
M148.164719,193.456482 
	C147.843506,193.152054 147.522308,192.847626 146.905029,191.734482 
	C146.368301,190.500931 145.831558,189.267380 145.243195,187.915131 
	C142.129364,190.448380 139.423584,192.649643 136.717819,194.850906 
	C136.966705,195.046341 137.215576,195.241776 137.464462,195.437210 
	C140.354858,194.989716 143.245255,194.542221 146.704910,194.206116 
	C147.089935,194.257919 147.474960,194.309723 147.987259,194.993958 
	C149.524536,195.171875 151.061813,195.349792 152.599106,195.527710 
	C152.582092,195.093002 152.565079,194.658295 152.548065,194.223587 
	C151.122620,194.091797 149.697189,193.960007 148.164719,193.456482 
M201.903351,138.597244 
	C202.292236,138.222214 202.681122,137.847183 203.070007,137.472137 
	C201.984222,137.656891 200.898438,137.841644 199.264801,138.438370 
	C200.065186,140.504318 200.865585,142.570267 201.665970,144.636215 
	C202.172440,144.385864 202.678894,144.135529 203.185364,143.885178 
	C202.469177,142.103439 201.752991,140.321686 201.903351,138.597244 
M205.960739,142.738281 
	C206.461945,143.593323 206.963150,144.448380 207.833252,145.932755 
	C208.406342,143.947632 208.758118,142.729095 209.451736,141.112808 
	C208.920410,139.572266 208.389069,138.031723 207.939850,136.729248 
	C206.687958,137.105011 205.444626,137.478226 204.224014,137.935577 
	C204.224014,137.935577 203.954056,137.981949 203.684662,138.944321 
	C204.446274,139.988739 205.207870,141.033142 205.960739,142.738281 
M23.664164,118.397079 
	C23.722780,119.447113 24.175299,120.695694 23.765131,121.509438 
	C22.599422,123.822105 21.081635,125.957314 19.702444,128.162369 
	C19.907858,128.294861 20.113270,128.427338 20.318684,128.559830 
	C23.254410,126.365341 26.190136,124.170860 29.435465,121.744942 
	C27.644344,119.862419 25.745794,117.866989 23.355343,115.354546 
	C23.200653,117.301010 23.132231,118.161964 22.295301,119.285866 
	C20.875311,119.592384 19.455320,119.898903 18.035330,120.205421 
	C18.165751,120.612198 18.296171,121.018974 18.426594,121.425751 
	C19.899096,121.425751 21.371597,121.425751 22.842260,121.425751 
	C22.891457,120.478691 22.931612,119.705673 23.664164,118.397079 
M64.074188,161.601959 
	C64.973640,163.063583 65.873085,164.525208 66.383247,165.354233 
	C64.802010,167.274551 63.449726,168.916809 62.097443,170.559067 
	C62.298477,170.823959 62.499508,171.088837 62.700539,171.353714 
	C65.140305,170.016083 67.580070,168.678452 70.879463,166.869507 
	C68.455811,164.832947 66.194008,162.932388 63.776077,160.341766 
	C60.513786,156.848312 57.251492,153.354843 53.863567,149.079346 
	C54.373089,147.737595 54.882607,146.395828 55.332043,145.212296 
	C54.770805,145.501389 53.581589,146.113968 52.342758,146.752090 
	C50.218407,144.486572 48.030052,142.152817 45.232506,139.169373 
	C45.357685,141.485794 45.419033,142.621002 45.420429,142.646851 
	C42.766903,143.941757 40.814152,144.894684 39.164051,145.699921 
	C40.678879,148.284943 41.689022,150.008713 42.674191,151.689880 
	C44.894878,149.931427 47.239254,148.075012 49.583630,146.218613 
	C50.067390,146.795074 50.551151,147.371536 51.034912,147.947998 
	C49.049320,149.832474 47.063728,151.716965 45.078136,153.601456 
	C45.234032,153.843170 45.389931,154.084900 45.545830,154.326614 
	C48.405479,152.790985 51.265129,151.255356 54.097702,150.523544 
	C54.342915,151.112411 54.477474,151.785721 54.851765,152.276062 
	C56.883453,154.937744 60.020699,157.678528 53.773376,159.129059 
	C53.431561,159.208420 53.330433,161.174103 53.461987,162.218307 
	C53.611847,163.407791 54.148811,164.548508 54.568390,165.870697 
	C57.605534,163.888840 59.096813,158.917877 64.074188,161.601959 
M82.479408,185.097687 
	C82.655067,185.325760 82.830727,185.553848 83.765587,185.938461 
	C85.375053,186.964142 86.984520,187.989822 88.477875,188.941513 
	C86.031723,191.003082 84.296524,192.465469 83.228767,193.365341 
	C84.433128,196.108871 85.274071,198.024536 85.963684,199.595474 
	C88.592827,198.119781 91.428246,196.528320 94.244987,195.701508 
	C93.217964,197.277298 92.190941,198.853073 91.163918,200.428864 
	C91.388313,200.634766 91.612709,200.840683 91.837105,201.046585 
	C93.222321,200.069046 94.607529,199.091507 96.246353,197.934982 
	C97.166740,198.950882 98.096825,199.977493 98.865570,200.826035 
	C98.274612,203.290421 92.504356,201.779892 95.472191,206.153381 
	C97.487022,205.135574 99.502991,204.117203 101.518967,203.098831 
	C101.765266,203.572800 102.011574,204.046783 102.257874,204.520752 
	C100.178146,206.766693 98.098412,209.012634 96.018684,211.258575 
	C96.281937,211.514282 96.545189,211.770004 96.808434,212.025711 
	C99.723450,209.913696 102.638466,207.801682 105.793869,205.515503 
	C102.765373,202.196228 99.456581,198.569733 95.745010,194.401520 
	C90.682892,188.904770 85.620781,183.408005 80.966713,178.354340 
	C78.513466,181.488739 76.412361,184.173233 74.311256,186.857712 
	C74.675087,187.192108 75.038918,187.526520 75.402748,187.860916 
	C77.046074,186.362473 78.615738,184.771591 80.351158,183.388733 
	C82.571976,181.619110 83.204491,182.762054 82.479408,185.097687 
M64.347443,146.162140 
	C69.265854,151.552704 74.184258,156.943283 79.233192,162.476913 
	C107.436447,136.780136 135.341537,111.355026 163.381287,85.807220 
	C153.705353,75.216423 144.300552,64.922409 134.699982,54.414120 
	C106.547340,80.044273 78.650940,105.441147 50.556076,131.018692 
	C55.176125,136.077988 59.532722,140.848801 64.347443,146.162140 
M110.582977,27.908379 
	C106.450623,23.404297 102.318260,18.900215 97.948845,14.137754 
	C69.737892,39.792923 41.845390,65.158485 13.734075,90.723045 
	C23.358110,101.272362 32.856339,111.683784 42.432312,122.180420 
	C70.551079,96.569237 98.461632,71.147697 126.630531,45.490852 
	C121.334106,39.686024 116.199646,34.058697 110.582977,27.908379 
M101.180855,160.679977 
	C96.926620,164.581314 92.672386,168.482651 88.297958,172.494217 
	C97.965729,183.055283 107.368568,193.326920 116.998428,203.846558 
	C145.216919,178.158188 173.039230,152.830475 201.138626,127.250519 
	C191.607391,116.787682 182.107773,106.359535 172.496094,95.808388 
	C148.773804,117.381622 125.234566,138.788391 101.180855,160.679977 
M147.439590,54.227837 
	C146.295563,61.149509 148.673706,66.718414 154.400391,70.563103 
	C159.832901,74.210281 165.703751,74.190582 171.307114,70.849716 
	C176.928635,67.498032 179.486664,62.369297 179.002777,55.796349 
	C178.446396,48.238743 172.576965,42.457436 164.317383,41.315346 
	C157.359650,40.353268 150.575989,45.316574 147.439590,54.227837 
M212.837479,109.272125 
	C213.313843,108.593513 213.829651,107.938950 214.260376,107.232513 
	C217.992294,101.111694 217.603699,93.745049 213.300674,88.715477 
	C208.456589,83.053505 201.317184,81.211685 194.887222,83.965195 
	C188.316376,86.779045 184.288498,93.144226 185.065552,100.252869 
	C185.697830,106.037025 188.583481,110.537468 194.064758,113.040207 
	C200.886703,116.155090 206.932343,114.701958 212.837479,109.272125 
M33.362492,130.849228 
	C34.860359,131.670593 36.358227,132.491974 38.835331,133.850327 
	C36.096329,134.510193 34.919483,134.793716 33.742634,135.077240 
	C34.725700,136.405167 35.708767,137.733093 36.731850,139.115082 
	C35.808395,140.424377 34.767120,141.900711 33.725845,143.377045 
	C33.898907,143.501480 34.071964,143.625916 34.245026,143.750366 
	C37.309078,141.648361 40.373131,139.546356 43.059444,137.703476 
	C42.501720,135.774765 41.744320,133.429184 41.155083,131.042084 
	C40.547134,128.579178 34.120018,125.300140 32.631958,127.011124 
	C30.406666,129.569794 28.783537,132.652145 26.904266,135.511749 
	C27.101364,135.700729 27.298462,135.889694 27.495560,136.078674 
	C29.268047,134.494751 31.040535,132.910828 33.362492,130.849228 
M163.005966,175.232742 
	C163.303192,174.327454 163.600418,173.422165 163.897629,172.516861 
	C162.767517,172.760056 161.461960,172.731339 160.553253,173.317657 
	C159.500443,173.996964 158.622070,175.116455 157.982986,176.226257 
	C157.083954,177.787460 156.474792,179.515579 155.741653,181.172333 
	C156.139801,181.249313 156.537933,181.326294 156.936081,181.403259 
	C158.172226,180.638718 159.408356,179.874176 160.644501,179.109634 
	C161.763199,180.976501 162.881897,182.843369 164.714523,185.901611 
	C163.866638,181.780823 163.251450,178.791016 163.005966,175.232742 
M15.315719,109.176498 
	C16.297264,110.854050 17.278811,112.531601 18.508259,114.632843 
	C18.996334,114.573624 20.408262,114.402313 22.530470,114.144836 
	C19.359701,110.709923 16.646528,107.770721 14.271946,105.198326 
	C12.374778,107.686172 10.821736,109.722748 9.268694,111.759323 
	C9.450356,112.025970 9.632017,112.292618 9.813679,112.559265 
	C11.407981,111.439323 13.002283,110.319374 15.315719,109.176498 
M151.317474,187.965683 
	C153.031876,187.896149 154.746262,187.826614 156.460663,187.757080 
	C155.384705,186.106644 154.324646,184.445282 153.208511,182.822495 
	C153.095703,182.658493 152.644409,182.727295 152.035248,182.646072 
	C151.595108,184.329636 151.144302,186.054031 151.317474,187.965683 
M145.829178,199.669952 
	C144.639618,198.384476 143.450058,197.098999 142.260498,195.813538 
	C141.812897,196.379929 141.365280,196.946335 140.917679,197.512741 
	C142.555557,198.468781 144.193436,199.424835 145.829178,199.669952 
M152.251328,190.064545 
	C151.862656,190.623642 151.473984,191.182739 151.085297,191.741821 
	C152.405075,192.226593 153.724854,192.711380 155.044617,193.196152 
	C155.198044,192.868835 155.351456,192.541519 155.504868,192.214203 
	C154.666809,191.522095 153.828751,190.829971 152.251328,190.064545 
M6.042210,96.482262 
	C5.354680,96.964127 4.667149,97.445992 3.979619,97.927856 
	C5.088823,98.188782 6.198028,98.449707 7.307232,98.710632 
	C7.084830,97.957039 6.862429,97.203453 6.042210,96.482262 
M188.374985,150.625107 
	C188.567123,150.959808 188.759277,151.294510 188.951416,151.629211 
	C189.229919,151.358734 189.508423,151.088257 189.786926,150.817764 
	C189.458694,150.620255 189.130447,150.422729 188.374985,150.625107 
M160.921417,184.508331 
	C160.775986,184.256805 160.630569,184.005264 160.485153,183.753738 
	C160.350815,184.013718 160.061020,184.324234 160.124634,184.519852 
	C160.192047,184.727158 160.595306,184.825241 160.921417,184.508331 
M184.730988,163.548141 
	C184.575302,163.533676 184.419632,163.519211 184.263947,163.504761 
	C184.334015,163.594238 184.404083,163.683731 184.730988,163.548141 
M185.636581,165.494629 
	C185.636581,165.494629 185.446747,165.380386 185.446747,165.380386 
	C185.446747,165.380386 185.470978,165.612900 185.636581,165.494629 
M120.354561,210.472260 
	C120.354561,210.472260 120.671814,210.621658 120.671814,210.621658 
	C120.671814,210.621658 120.606430,210.316788 120.354561,210.472260 
M217.697861,135.469498 
	C217.697861,135.469498 217.457321,135.332657 217.457321,135.332657 
	C217.457321,135.332657 217.495850,135.629578 217.697861,135.469498 
z"/>
<path fill="#8FBBD0" opacity="1.000000" stroke="none" 
	d="
M129.562500,1.000000 
	C136.792618,4.157907 142.158234,8.361615 142.106110,16.811298 
	C142.056076,24.922386 136.506226,31.592331 128.580826,32.867977 
	C121.375687,34.027695 113.714638,29.248360 111.439140,22.174175 
	C108.823372,14.042087 112.176590,6.081283 119.741455,2.532543 
	C120.636131,2.112843 121.603958,1.849099 122.768936,1.256531 
	C125.041664,1.000000 127.083336,1.000000 129.562500,1.000000 
z"/>
<path fill="#0A0A0A" opacity="1.000000" stroke="none" 
	d="
M1.000000,102.375000 
	C2.469172,101.520264 3.938342,101.040527 6.341378,100.255852 
	C5.372690,101.797142 4.851620,102.626228 3.991563,103.994675 
	C5.826568,104.610397 7.665873,105.227570 9.832933,105.954712 
	C8.264854,107.460449 6.418603,109.233307 3.907213,111.644852 
	C4.478521,108.473022 6.956335,105.057701 1.402067,105.022560 
	C1.000000,104.250000 1.000000,103.500000 1.000000,102.375000 
z"/>
<path fill="#D5D5D5" opacity="1.000000" stroke="none" 
	d="
M125.375000,218.000000 
	C125.011093,217.272766 125.022171,216.545517 125.183090,215.352509 
	C125.332932,214.886719 125.738922,214.935349 126.087280,214.953445 
	C126.893936,214.902374 127.352234,214.833206 127.910446,214.885925 
	C128.010361,215.007812 128.207703,215.253586 128.207703,215.253586 
	C128.131302,215.938797 128.054916,216.623993 127.989258,217.654602 
	C127.250000,218.000000 126.500000,218.000000 125.375000,218.000000 
z"/>
<path fill="#060606" opacity="1.000000" stroke="none" 
	d="
M64.118385,145.890869 
	C59.532722,140.848801 55.176125,136.077988 50.556076,131.018692 
	C78.650940,105.441147 106.547340,80.044273 134.699982,54.414120 
	C144.300552,64.922409 153.705353,75.216423 163.381287,85.807220 
	C135.341537,111.355026 107.436447,136.780136 79.233192,162.476913 
	C74.184258,156.943283 69.265854,151.552704 64.118385,145.890869 
M116.256752,118.759872 
	C128.404831,107.677238 140.552917,96.594597 152.873611,85.354492 
	C146.637924,78.495758 140.527756,71.775101 134.276611,64.899368 
	C109.779182,87.188698 85.537003,109.245796 61.082779,131.495819 
	C67.299431,138.337662 73.399178,145.050827 79.693810,151.978470 
	C91.838783,140.933228 103.776962,130.076050 116.256752,118.759872 
z"/>
<path fill="#060504" opacity="1.000000" stroke="none" 
	d="
M110.824081,28.169876 
	C116.199646,34.058697 121.334106,39.686024 126.630531,45.490852 
	C98.461632,71.147697 70.551079,96.569237 42.432312,122.180420 
	C32.856339,111.683784 23.358110,101.272362 13.734075,90.723045 
	C41.845390,65.158485 69.737892,39.792923 97.948845,14.137754 
	C102.318260,18.900215 106.450623,23.404297 110.824081,28.169876 
M41.270809,75.765381 
	C35.658394,80.896187 30.045982,86.027000 24.277075,91.300873 
	C30.716110,98.299347 36.752396,104.860077 42.977489,111.626015 
	C67.583076,89.218918 91.782623,67.181587 116.113144,45.024982 
	C109.702698,38.005322 103.669052,31.398277 97.449242,24.587376 
	C78.705566,41.656513 60.243969,58.468773 41.270809,75.765381 
z"/>
<path fill="#030504" opacity="1.000000" stroke="none" 
	d="
M101.438095,160.437561 
	C125.234566,138.788391 148.773804,117.381622 172.496094,95.808388 
	C182.107773,106.359535 191.607391,116.787682 201.138626,127.250519 
	C173.039230,152.830475 145.216919,178.158188 116.998428,203.846558 
	C107.368568,193.326920 97.965729,183.055283 88.297958,172.494217 
	C92.672386,168.482651 96.926620,164.581314 101.438095,160.437561 
M114.006706,189.464722 
	C115.000473,190.772186 115.994247,192.079636 117.178932,193.638260 
	C142.058578,170.987839 166.236526,148.976242 190.692215,126.711800 
	C184.296646,119.747749 178.279297,113.195518 171.958145,106.312500 
	C147.385254,128.700256 123.227303,150.709976 98.816544,172.950012 
	C103.888420,178.472687 108.702530,183.714661 114.006706,189.464722 
z"/>
<path fill="#8FBCD0" opacity="1.000000" stroke="none" 
	d="
M147.572784,53.848518 
	C150.575989,45.316574 157.359650,40.353268 164.317383,41.315346 
	C172.576965,42.457436 178.446396,48.238743 179.002777,55.796349 
	C179.486664,62.369297 176.928635,67.498032 171.307114,70.849716 
	C165.703751,74.190582 159.832901,74.210281 154.400391,70.563103 
	C148.673706,66.718414 146.295563,61.149509 147.572784,53.848518 
z"/>
<path fill="#8FBCD0" opacity="1.000000" stroke="none" 
	d="
M212.606964,109.561295 
	C206.932343,114.701958 200.886703,116.155090 194.064758,113.040207 
	C188.583481,110.537468 185.697830,106.037025 185.065552,100.252869 
	C184.288498,93.144226 188.316376,86.779045 194.887222,83.965195 
	C201.317184,81.211685 208.456589,83.053505 213.300674,88.715477 
	C217.603699,93.745049 217.992294,101.111694 214.260376,107.232513 
	C213.829651,107.938950 213.313843,108.593513 212.606964,109.561295 
z"/>
<path fill="#202020" opacity="1.000000" stroke="none" 
	d="
M94.263672,194.936859 
	C91.428246,196.528320 88.592827,198.119781 85.963684,199.595474 
	C85.274071,198.024536 84.433128,196.108871 83.228767,193.365341 
	C84.296524,192.465469 86.031723,191.003082 88.477875,188.941513 
	C86.984520,187.989822 85.375053,186.964142 83.387619,185.676971 
	C83.009659,185.415497 83.016487,185.049072 83.016487,185.049072 
	C83.204491,182.762054 82.571976,181.619110 80.351158,183.388733 
	C78.615738,184.771591 77.046074,186.362473 75.402748,187.860916 
	C75.038918,187.526520 74.675087,187.192108 74.311256,186.857712 
	C76.412361,184.173233 78.513466,181.488739 80.966713,178.354340 
	C85.620781,183.408005 90.682892,188.904770 95.632477,194.696747 
	C95.101181,194.973618 94.682426,194.955246 94.263672,194.936859 
z"/>
<path fill="#111111" opacity="1.000000" stroke="none" 
	d="
M33.087757,131.088074 
	C31.040535,132.910828 29.268047,134.494751 27.495560,136.078674 
	C27.298462,135.889694 27.101364,135.700729 26.904266,135.511749 
	C28.783537,132.652145 30.406666,129.569794 32.631958,127.011124 
	C34.120018,125.300140 40.547134,128.579178 41.155083,131.042084 
	C41.744320,133.429184 42.501720,135.774765 43.059444,137.703476 
	C40.373131,139.546356 37.309078,141.648361 34.245026,143.750366 
	C34.071964,143.625916 33.898907,143.501480 33.725845,143.377045 
	C34.767120,141.900711 35.808395,140.424377 36.731850,139.115082 
	C35.708767,137.733093 34.725700,136.405167 33.742634,135.077240 
	C34.919483,134.793716 36.096329,134.510193 38.835331,133.850327 
	C36.358227,132.491974 34.860359,131.670593 33.087757,131.088074 
M37.625477,136.310333 
	C38.091084,136.558472 38.538883,136.879089 39.035480,137.001114 
	C39.152046,137.029755 39.433563,136.387115 39.639187,136.053299 
	C39.138615,135.842957 38.638042,135.632599 37.625477,136.310333 
z"/>
<path fill="#121212" opacity="1.000000" stroke="none" 
	d="
M54.124786,149.719727 
	C51.265129,151.255356 48.405479,152.790985 45.545830,154.326614 
	C45.389931,154.084900 45.234032,153.843170 45.078136,153.601456 
	C47.063728,151.716965 49.049320,149.832474 51.034912,147.947998 
	C50.551151,147.371536 50.067390,146.795074 49.583630,146.218613 
	C47.239254,148.075012 44.894878,149.931427 42.674191,151.689880 
	C41.689022,150.008713 40.678879,148.284943 39.164051,145.699921 
	C40.814152,144.894684 42.766903,143.941757 45.420429,142.646851 
	C45.419033,142.621002 45.357685,141.485794 45.232506,139.169373 
	C48.030052,142.152817 50.218407,144.486572 52.342758,146.752090 
	C53.581589,146.113968 54.770805,145.501389 55.332043,145.212296 
	C54.882607,146.395828 54.373089,147.737595 53.962585,149.440674 
	C54.061607,149.802017 54.124786,149.719727 54.124786,149.719727 
z"/>
<path fill="#171717" opacity="1.000000" stroke="none" 
	d="
M94.254333,195.319183 
	C94.682426,194.955246 95.101181,194.973618 95.833862,194.967621 
	C99.456581,198.569733 102.765373,202.196228 105.793869,205.515503 
	C102.638466,207.801682 99.723450,209.913696 96.808434,212.025711 
	C96.545189,211.770004 96.281937,211.514282 96.018684,211.258575 
	C98.098412,209.012634 100.178146,206.766693 102.257874,204.520752 
	C102.011574,204.046783 101.765266,203.572800 101.518967,203.098831 
	C99.502991,204.117203 97.487022,205.135574 95.472191,206.153381 
	C92.504356,201.779892 98.274612,203.290421 98.865570,200.826035 
	C98.096825,199.977493 97.166740,198.950882 96.246353,197.934982 
	C94.607529,199.091507 93.222321,200.069046 91.837105,201.046585 
	C91.612709,200.840683 91.388313,200.634766 91.163918,200.428864 
	C92.190941,198.853073 93.217964,197.277298 94.254333,195.319183 
z"/>
<path fill="#0E0E0E" opacity="1.000000" stroke="none" 
	d="
M64.088310,160.878021 
	C59.096813,158.917877 57.605534,163.888840 54.568390,165.870697 
	C54.148811,164.548508 53.611847,163.407791 53.461987,162.218307 
	C53.330433,161.174103 53.431561,159.208420 53.773376,159.129059 
	C60.020699,157.678528 56.883453,154.937744 54.851765,152.276062 
	C54.477474,151.785721 54.342915,151.112411 54.111244,150.121643 
	C54.124786,149.719727 54.061607,149.802017 54.025402,149.831696 
	C57.251492,153.354843 60.513786,156.848312 63.896820,160.652054 
	C64.017563,160.962341 64.088310,160.878021 64.088310,160.878021 
z"/>
<path fill="#E2E2E2" opacity="1.000000" stroke="none" 
	d="
M129.000000,209.000000 
	C130.325623,209.397812 131.651260,209.795624 134.263062,210.579407 
	C131.935165,207.115952 130.402466,204.835556 128.104874,201.417191 
	C129.892166,201.835815 131.465408,201.768585 132.355148,202.515518 
	C133.667374,203.617126 134.492920,205.298447 135.776306,207.132294 
	C136.026840,207.531723 136.000122,207.999359 136.000122,207.999359 
	C134.586533,209.972458 133.172958,211.945572 131.032288,213.927673 
	C129.802887,213.877197 129.300537,213.817703 128.876587,213.448944 
	C128.946518,212.505325 128.938080,211.870956 128.977859,210.865845 
	C129.017380,209.996735 129.008698,209.498367 129.000000,209.000000 
z"/>
<path fill="#EBEBEB" opacity="1.000000" stroke="none" 
	d="
M162.821121,175.516968 
	C163.251450,178.791016 163.866638,181.780823 164.714523,185.901611 
	C162.881897,182.843369 161.763199,180.976501 160.644501,179.109634 
	C159.408356,179.874176 158.172226,180.638718 156.936081,181.403259 
	C156.537933,181.326294 156.139801,181.249313 155.741653,181.172333 
	C156.474792,179.515579 157.083954,177.787460 157.982986,176.226257 
	C158.622070,175.116455 159.500443,173.996964 160.553253,173.317657 
	C161.461960,172.731339 162.767517,172.760056 163.897644,172.516861 
	C163.600418,173.422165 163.303192,174.327454 162.821121,175.516968 
z"/>
<path fill="#202020" opacity="1.000000" stroke="none" 
	d="
M14.956152,109.187965 
	C13.002283,110.319374 11.407981,111.439323 9.813679,112.559265 
	C9.632017,112.292618 9.450356,112.025970 9.268694,111.759323 
	C10.821736,109.722748 12.374778,107.686172 14.271946,105.198326 
	C16.646528,107.770721 19.359701,110.709923 22.530470,114.144836 
	C20.408262,114.402313 18.996334,114.573624 18.508259,114.632843 
	C17.278811,112.531601 16.297264,110.854050 14.956152,109.187965 
z"/>
<path fill="#191919" opacity="1.000000" stroke="none" 
	d="
M23.063808,119.022919 
	C23.132231,118.161964 23.200653,117.301010 23.355343,115.354546 
	C25.745794,117.866989 27.644344,119.862419 29.435465,121.744942 
	C26.190136,124.170860 23.254410,126.365341 20.318684,128.559830 
	C20.113270,128.427338 19.907858,128.294861 19.702444,128.162369 
	C21.081635,125.957314 22.599422,123.822105 23.765131,121.509438 
	C24.175299,120.695694 23.722780,119.447113 23.336803,118.691689 
	C23.009441,118.986298 23.063808,119.022919 23.063808,119.022919 
z"/>
<path fill="#D1D1D1" opacity="1.000000" stroke="none" 
	d="
M171.604034,169.307419 
	C170.259155,169.166473 168.914291,169.025513 167.058609,168.831024 
	C169.202026,164.831436 171.289368,161.971603 176.432556,163.036407 
	C176.962799,163.235672 177.048126,163.717880 177.108368,163.939056 
	C177.173538,164.465897 177.157364,164.770447 176.681900,165.047562 
	C175.510117,165.801834 174.776474,166.582413 173.780975,167.153137 
	C172.865845,167.002457 172.212616,167.061615 171.448792,167.130768 
	C171.669205,167.760880 171.871994,168.340607 171.961197,169.022095 
	C171.847610,169.123840 171.604034,169.307419 171.604034,169.307419 
z"/>
<path fill="#0E0E0E" opacity="1.000000" stroke="none" 
	d="
M63.974884,160.997070 
	C66.194008,162.932388 68.455811,164.832947 70.879463,166.869507 
	C67.580070,168.678452 65.140305,170.016083 62.700539,171.353714 
	C62.499508,171.088837 62.298477,170.823959 62.097443,170.559067 
	C63.449726,168.916809 64.802010,167.274551 66.383247,165.354233 
	C65.873085,164.525208 64.973640,163.063583 64.081253,161.239990 
	C64.088310,160.878021 64.017563,160.962341 63.974884,160.997070 
z"/>
<path fill="#D1D1D1" opacity="1.000000" stroke="none" 
	d="
M146.135651,194.094727 
	C143.245255,194.542221 140.354858,194.989716 137.464462,195.437210 
	C137.215576,195.241776 136.966705,195.046341 136.717819,194.850906 
	C139.423584,192.649643 142.129364,190.448380 145.243195,187.915131 
	C145.831558,189.267380 146.368301,190.500931 146.824036,192.366470 
	C146.540588,193.363876 146.338120,193.729309 146.135651,194.094727 
z"/>
<path fill="#EBEBEB" opacity="1.000000" stroke="none" 
	d="
M151.005478,187.872070 
	C151.144302,186.054031 151.595108,184.329636 152.035248,182.646072 
	C152.644409,182.727295 153.095703,182.658493 153.208511,182.822495 
	C154.324646,184.445282 155.384705,186.106644 156.460663,187.757080 
	C154.746262,187.826614 153.031876,187.896149 151.005478,187.872070 
z"/>
<path fill="#B5B5B5" opacity="1.000000" stroke="none" 
	d="
M195.802429,147.178192 
	C196.979691,148.209793 198.210083,149.193634 199.249008,150.349564 
	C199.348877,150.460693 198.258179,151.641876 197.034576,152.260620 
	C195.833786,152.260513 195.318573,152.326080 194.803360,152.391632 
	C194.523392,152.077866 194.243423,151.764114 193.985687,150.693466 
	C194.372665,148.991119 194.737427,148.045639 195.102173,147.100174 
	C195.102173,147.100174 195.007843,147.002686 195.230621,147.068817 
	C195.453384,147.134933 195.802429,147.178192 195.802429,147.178192 
z"/>
<path fill="#383838" opacity="1.000000" stroke="none" 
	d="
M204.201294,137.851425 
	C205.444626,137.478226 206.687958,137.105011 207.939850,136.729248 
	C208.389069,138.031723 208.920410,139.572266 209.184402,140.880371 
	C207.934540,141.124466 206.952011,141.601013 205.969482,142.077560 
	C205.207870,141.033142 204.446274,139.988739 203.940002,138.541946 
	C204.195328,138.139572 204.201294,137.851425 204.201294,137.851425 
z"/>
<path fill="#191919" opacity="1.000000" stroke="none" 
	d="
M220.934586,122.813255 
	C220.554550,123.006401 220.192642,123.277664 219.789490,123.371109 
	C219.371445,123.468018 218.913498,123.392693 218.469437,123.392693 
	C218.338913,124.827644 218.219101,126.144882 218.175476,127.869232 
	C218.251694,128.276352 218.309464,128.171219 218.294586,128.170715 
	C218.279724,128.170197 218.293854,128.148651 218.070312,127.683243 
	C217.503021,127.200035 217.159286,127.182228 216.670944,127.191605 
	C216.219467,127.320679 216.040451,127.530945 215.835022,127.799103 
	C215.680740,127.748619 215.377106,127.863518 215.377106,127.863518 
	C215.320877,124.437248 215.430984,121.158890 220.701813,122.498283 
	C220.996811,122.789352 220.934586,122.813255 220.934586,122.813255 
z"/>
<path fill="#454545" opacity="1.000000" stroke="none" 
	d="
M224.135788,122.915665 
	C225.528336,122.148598 226.920883,121.381538 228.862701,120.311920 
	C227.700317,125.137947 227.700317,125.137947 224.142426,123.224228 
	C224.175659,122.874626 224.135788,122.915657 224.135788,122.915665 
z"/>
<path fill="#E2E2E2" opacity="1.000000" stroke="none" 
	d="
M124.558167,209.003311 
	C124.881302,208.933319 125.203499,208.937378 126.034683,209.138306 
	C126.985153,209.890381 127.425705,210.519669 127.806549,211.152618 
	C127.598854,211.249725 127.454361,211.340118 126.737411,211.248322 
	C125.443329,211.427536 124.725189,211.785873 123.833580,212.040039 
	C123.383537,211.743408 123.142677,211.780853 122.937523,212.048203 
	C122.937523,212.048203 122.986664,211.997925 123.032043,211.693390 
	C123.064949,211.160583 123.052483,210.932312 123.040016,210.704041 
	C122.857445,210.474762 122.787643,210.215149 123.328201,209.699814 
	C124.069916,209.317383 124.314041,209.160339 124.558167,209.003311 
z"/>
<path fill="#E5E5E5" opacity="1.000000" stroke="none" 
	d="
M201.036819,138.539932 
	C201.752991,140.321686 202.469177,142.103439 203.185364,143.885178 
	C202.678894,144.135529 202.172440,144.385864 201.665970,144.636215 
	C200.865585,142.570267 200.065186,140.504318 199.849457,138.349579 
	C200.635025,138.353836 200.835922,138.446884 201.036819,138.539932 
z"/>
<path fill="#E2E2E2" opacity="1.000000" stroke="none" 
	d="
M194.752167,152.700043 
	C195.318573,152.326080 195.833786,152.260513 196.739532,152.208862 
	C197.101776,152.874527 197.301910,153.672531 196.997726,154.147659 
	C196.360413,155.143112 195.495270,156.009155 194.622696,156.819611 
	C194.493332,156.939789 193.428955,156.342926 193.446503,156.288956 
	C193.808060,155.177048 194.263855,154.095779 194.752167,152.700043 
z"/>
<path fill="#202020" opacity="1.000000" stroke="none" 
	d="
M174.042847,167.362991 
	C174.776474,166.582413 175.510117,165.801834 176.842209,165.346985 
	C177.642075,165.776215 177.843460,165.879700 178.207245,166.349762 
	C178.605591,166.841888 178.841583,166.967407 179.077560,167.092926 
	C179.051392,167.394043 179.025238,167.695160 178.454193,167.832489 
	C177.671112,167.649185 177.432892,167.629684 177.194687,167.610168 
	C177.472519,168.061401 177.750366,168.512634 178.028198,168.963867 
	C177.891846,169.683609 177.755493,170.403366 177.129669,170.705750 
	C175.694611,170.233871 174.749023,170.179367 173.962036,169.728760 
	C174.091263,169.049744 174.061920,168.766830 174.081802,168.299957 
	C174.149475,167.859390 174.120087,167.608383 174.042847,167.362991 
z"/>
<path fill="#D1D1D1" opacity="1.000000" stroke="none" 
	d="
M145.830246,200.025421 
	C144.193436,199.424835 142.555557,198.468781 140.917679,197.512741 
	C141.365280,196.946335 141.812897,196.379929 142.260498,195.813538 
	C143.450058,197.098999 144.639618,198.384476 145.830246,200.025421 
z"/>
<path fill="#EBEBEB" opacity="1.000000" stroke="none" 
	d="
M152.621002,190.101196 
	C153.828751,190.829971 154.666809,191.522095 155.504868,192.214203 
	C155.351456,192.541519 155.198044,192.868835 155.044617,193.196152 
	C153.724854,192.711380 152.405075,192.226593 151.085297,191.741821 
	C151.473984,191.182739 151.862656,190.623642 152.621002,190.101196 
z"/>
<path fill="#333333" opacity="1.000000" stroke="none" 
	d="
M218.309464,128.171219 
	C218.309464,128.171219 218.251694,128.276352 218.214020,128.322540 
	C219.745544,128.368729 221.314728,128.368729 222.883896,128.368729 
	C222.857956,128.910919 222.832001,129.453110 222.806046,129.995316 
	C221.847534,130.051071 220.889023,130.106827 219.292816,130.192795 
	C218.406937,130.794128 218.158722,131.365265 217.910522,131.936401 
	C217.704025,131.872757 217.497513,131.809097 217.138229,131.138062 
	C216.976501,130.318039 216.967575,130.105392 217.029358,129.673248 
	C217.100067,129.453735 217.086273,128.992706 217.312271,128.891113 
	C217.828735,128.625076 218.085800,128.418976 218.309464,128.171219 
z"/>
<path fill="#191919" opacity="1.000000" stroke="none" 
	d="
M22.990604,118.959473 
	C22.931612,119.705673 22.891457,120.478691 22.842260,121.425751 
	C21.371597,121.425751 19.899096,121.425751 18.426594,121.425751 
	C18.296171,121.018974 18.165751,120.612198 18.035330,120.205421 
	C19.455320,119.898903 20.875311,119.592384 22.679554,119.154388 
	C23.063808,119.022919 23.009441,118.986298 22.990604,118.959473 
z"/>
<path fill="#D1D1D1" opacity="1.000000" stroke="none" 
	d="
M168.014755,175.903351 
	C168.283020,175.215073 168.551270,174.526794 169.471100,173.969391 
	C170.746948,174.743042 171.371216,175.385834 171.995468,176.028625 
	C171.072845,176.392487 170.150208,176.756348 168.674286,176.944992 
	C167.977844,176.494171 167.942429,176.205368 168.014755,175.903351 
z"/>
<path fill="#E5E5E5" opacity="1.000000" stroke="none" 
	d="
M205.965118,142.407928 
	C206.952011,141.601013 207.934540,141.124466 209.013489,141.079254 
	C208.758118,142.729095 208.406342,143.947632 207.833252,145.932755 
	C206.963150,144.448380 206.461945,143.593323 205.965118,142.407928 
z"/>
<path fill="#B5B5B5" opacity="1.000000" stroke="none" 
	d="
M178.099701,159.169891 
	C179.079315,160.557709 180.058899,161.945526 180.712738,163.655502 
	C180.136230,164.011734 179.885468,164.045792 179.476440,164.071106 
	C179.318176,164.062363 179.009354,163.990707 178.985962,163.808868 
	C178.962570,163.627045 178.945496,163.260788 178.901703,162.962830 
	C178.537949,162.446869 178.218002,162.228882 177.932465,162.016647 
	C177.966858,162.022400 177.937164,162.085617 177.907257,161.598389 
	C177.951477,160.464081 178.025589,159.816986 178.099701,159.169891 
z"/>
<path fill="#D1D1D1" opacity="1.000000" stroke="none" 
	d="
M173.803436,170.124863 
	C174.749023,170.179367 175.694611,170.233871 176.815552,170.672775 
	C176.841568,171.368607 176.692230,171.680038 176.032227,172.116013 
	C175.097977,172.172806 174.674362,172.105026 174.185822,172.019226 
	C174.120895,172.001205 173.986099,171.999329 173.712326,171.823257 
	C172.922852,171.273193 172.407135,170.899200 171.891418,170.525208 
	C171.541428,170.368301 171.435562,170.111526 171.588943,169.531158 
	C171.604034,169.307419 171.847610,169.123840 172.161591,169.074539 
	C172.475571,169.025238 172.849136,169.204361 172.908646,169.445251 
	C173.150925,170.014511 173.429352,170.160751 173.803436,170.124863 
z"/>
<path fill="#EBEBEB" opacity="1.000000" stroke="none" 
	d="
M148.271759,193.828232 
	C149.697189,193.960007 151.122620,194.091797 152.548065,194.223587 
	C152.565079,194.658295 152.582092,195.093002 152.599106,195.527710 
	C151.061813,195.349792 149.524536,195.171875 148.003326,194.525787 
	C148.019409,194.057632 148.271759,193.828232 148.271759,193.828232 
z"/>
<path fill="#D5D5D5" opacity="1.000000" stroke="none" 
	d="
M127.866257,211.148941 
	C127.425705,210.519669 126.985153,209.890381 126.277817,209.132065 
	C125.973427,208.247482 125.935822,207.491959 125.856567,205.900009 
	C127.210686,207.092056 127.966377,207.757294 128.861023,208.711273 
	C129.008698,209.498367 129.017380,209.996735 128.711639,210.849304 
	C128.220215,211.185333 128.043243,211.167145 127.866257,211.148941 
z"/>
<path fill="#D5D5D5" opacity="1.000000" stroke="none" 
	d="
M6.341119,96.466064 
	C6.862429,97.203453 7.084830,97.957039 7.307232,98.710632 
	C6.198028,98.449707 5.088823,98.188782 3.979619,97.927856 
	C4.667149,97.445992 5.354680,96.964127 6.341119,96.466064 
z"/>
<path fill="#E2E2E2" opacity="1.000000" stroke="none" 
	d="
M194.781494,147.093536 
	C194.737427,148.045639 194.372665,148.991119 193.645233,150.162445 
	C190.895279,148.295654 192.732742,147.710800 194.781494,147.093536 
z"/>
<path fill="#454545" opacity="1.000000" stroke="none" 
	d="
M221.217987,122.419937 
	C220.934586,122.813255 220.996811,122.789352 220.968018,122.817207 
	C221.242996,122.004395 221.546753,121.163727 221.866333,120.279335 
	C222.416779,121.081230 222.969757,121.886795 223.829254,122.804001 
	C224.135788,122.915657 224.175659,122.874626 224.208191,122.861923 
	C223.327606,122.575027 222.414505,122.300827 221.217987,122.419937 
z"/>
<path fill="#EBEBEB" opacity="1.000000" stroke="none" 
	d="
M167.981171,181.107101 
	C167.089401,181.170609 166.197632,181.234116 165.305862,181.297623 
	C165.623840,180.567917 165.941818,179.838226 166.651581,179.349289 
	C167.355972,180.095734 167.668564,180.601425 167.981171,181.107101 
z"/>
<path fill="#333333" opacity="1.000000" stroke="none" 
	d="
M168.295532,180.888657 
	C167.668564,180.601425 167.355972,180.095734 166.986191,179.291199 
	C166.981628,177.855957 167.034241,176.719574 167.550812,175.743271 
	C167.942429,176.205368 167.977844,176.494171 168.279755,176.924927 
	C168.495621,178.276794 168.552750,179.473511 168.295532,180.888657 
z"/>
<path fill="#B5B5B5" opacity="1.000000" stroke="none" 
	d="
M175.264847,172.985611 
	C174.858704,173.691574 174.452560,174.397537 173.473328,174.805328 
	C172.607788,173.861633 172.315338,173.216095 172.022873,172.570557 
	C172.022873,172.570557 171.945984,172.577820 172.300171,172.491486 
	C173.098267,172.269882 173.542191,172.134598 173.986099,171.999329 
	C173.986099,171.999329 174.120895,172.001205 174.262299,172.256958 
	C174.690750,172.670334 174.977798,172.827972 175.264847,172.985611 
z"/>
<path fill="#D1D1D1" opacity="1.000000" stroke="none" 
	d="
M217.086273,128.992706 
	C217.086273,128.992706 217.100067,129.453735 216.786102,129.670410 
	C216.472122,129.887070 215.998154,129.997742 215.649399,129.951096 
	C214.832382,129.866913 214.364105,129.829361 213.895844,129.791824 
	C214.176743,129.217041 214.457626,128.642258 215.057816,127.965500 
	C215.377106,127.863518 215.680740,127.748619 216.233765,127.859558 
	C216.796371,127.701813 216.805954,127.433121 216.815536,127.164429 
	C217.159286,127.182228 217.503021,127.200035 217.633835,127.701828 
	C217.309357,128.454788 217.197815,128.723740 217.086273,128.992706 
z"/>
<path fill="#191919" opacity="1.000000" stroke="none" 
	d="
M171.570663,172.415558 
	C172.315338,173.216095 172.607788,173.861633 173.134613,174.796951 
	C173.132080,175.403595 172.895142,175.720459 172.326843,176.032959 
	C171.371216,175.385834 170.746948,174.743042 169.776718,174.060883 
	C169.993317,173.434525 170.555878,172.847534 171.570663,172.415558 
z"/>
<path fill="#DFDFDF" opacity="1.000000" stroke="none" 
	d="
M178.007248,158.934219 
	C178.025589,159.816986 177.951477,160.464081 177.657394,161.520905 
	C177.265106,161.957443 177.092773,161.984268 176.920441,162.011108 
	C176.920441,162.011108 176.992722,162.008347 177.029724,161.763092 
	C177.047745,161.329529 177.028763,161.141205 177.009796,160.952896 
	C177.311462,160.201447 177.613129,159.449997 178.007248,158.934219 
z"/>
<path fill="#E2E2E2" opacity="1.000000" stroke="none" 
	d="
M188.588593,150.425156 
	C189.130447,150.422729 189.458694,150.620255 189.786926,150.817780 
	C189.508423,151.088257 189.229919,151.358734 188.951416,151.629211 
	C188.759277,151.294510 188.567123,150.959808 188.588593,150.425156 
z"/>
<path fill="#383838" opacity="1.000000" stroke="none" 
	d="
M218.366364,132.142059 
	C218.158722,131.365265 218.406937,130.794128 218.875763,130.135651 
	C219.470886,130.627213 219.845367,131.206100 220.219849,131.785004 
	C219.753983,131.972580 219.288101,132.160156 218.366364,132.142059 
z"/>
<path fill="#7C7C7C" opacity="1.000000" stroke="none" 
	d="
M213.883362,130.266907 
	C214.364105,129.829361 214.832382,129.866913 215.619278,130.222916 
	C215.962280,130.722076 215.986664,130.902756 216.011032,131.083420 
	C215.620651,131.612610 215.230255,132.141800 214.839859,132.670990 
	C214.516876,132.028000 214.193878,131.384995 213.883362,130.266907 
z"/>
<path fill="#383838" opacity="1.000000" stroke="none" 
	d="
M179.009354,163.990707 
	C179.009354,163.990707 179.318176,164.062363 179.715881,164.372864 
	C180.451538,164.505371 180.789459,164.327362 181.127396,164.149353 
	C181.134079,164.696991 181.140778,165.244614 181.168060,166.318253 
	C181.065369,166.958206 180.942062,167.072174 180.818741,167.186157 
	C180.818741,167.186157 180.401306,167.111603 180.144135,166.800323 
	C179.597137,166.324539 179.307312,166.160019 178.854233,165.607162 
	C178.474731,165.039658 178.258453,164.860489 178.121948,164.799698 
	C178.201736,164.918060 178.362854,164.682388 178.524414,164.509399 
	C178.685959,164.336426 179.009354,163.990707 179.009354,163.990707 
z"/>
<path fill="#242424" opacity="1.000000" stroke="none" 
	d="
M124.007050,212.144211 
	C124.725189,211.785873 125.443329,211.427536 126.348038,211.794739 
	C126.269394,213.325302 126.004166,214.130325 125.738922,214.935349 
	C125.738922,214.935349 125.332932,214.886719 125.156143,214.989380 
	C124.693810,214.925751 124.408272,214.759460 124.037369,213.862091 
	C123.970345,212.802063 123.988693,212.473145 124.007050,212.144211 
z"/>
<path fill="#EBEBEB" opacity="1.000000" stroke="none" 
	d="
M146.420288,194.150421 
	C146.338120,193.729309 146.540588,193.363876 146.972076,192.770828 
	C147.522308,192.847626 147.843506,193.152054 148.218231,193.642365 
	C148.271759,193.828232 148.019409,194.057632 147.939697,194.209579 
	C147.474960,194.309723 147.089935,194.257919 146.420288,194.150421 
z"/>
<path fill="#7C7C7C" opacity="1.000000" stroke="none" 
	d="
M173.712326,171.823257 
	C173.542191,172.134598 173.098267,172.269882 172.282898,172.456955 
	C171.911423,172.508759 171.546570,172.517426 171.325867,172.010208 
	C171.238983,171.292740 171.372803,171.082474 171.506638,170.872223 
	C171.506638,170.872223 171.607819,170.597382 171.749619,170.561295 
	C172.407135,170.899200 172.922852,171.273193 173.712326,171.823257 
z"/>
<path fill="#454545" opacity="1.000000" stroke="none" 
	d="
M136.375702,208.087204 
	C136.000122,207.999359 136.026840,207.531723 136.088104,207.305664 
	C136.953049,207.285782 137.756729,207.491928 138.560394,207.698074 
	C137.957352,207.857056 137.354309,208.016052 136.375702,208.087204 
z"/>
<path fill="#333333" opacity="1.000000" stroke="none" 
	d="
M201.470093,138.568588 
	C200.835922,138.446884 200.635025,138.353836 200.123383,138.143585 
	C200.898438,137.841644 201.984222,137.656891 203.070007,137.472137 
	C202.681122,137.847183 202.292236,138.222214 201.470093,138.568588 
z"/>
<path fill="#333333" opacity="1.000000" stroke="none" 
	d="
M176.656311,162.182861 
	C177.092773,161.984268 177.265106,161.957443 177.687302,162.008118 
	C177.937164,162.085617 177.966858,162.022400 178.029602,162.281265 
	C178.376724,162.780350 178.661102,163.020569 178.945496,163.260788 
	C178.945496,163.260788 178.962570,163.627045 178.985962,163.808868 
	C179.009354,163.990707 178.685959,164.336426 178.418182,164.507980 
	C178.150421,164.679535 178.115494,164.889069 177.919617,164.531616 
	C177.498520,164.022064 177.273331,163.869965 177.048126,163.717880 
	C177.048126,163.717880 176.962799,163.235672 176.759399,163.099380 
	C176.501373,162.760254 176.446777,162.557434 176.656311,162.182861 
z"/>
<path fill="#D5D5D5" opacity="1.000000" stroke="none" 
	d="
M128.798203,213.758194 
	C129.300537,213.817703 129.802887,213.877197 130.683609,213.974091 
	C130.334656,214.398590 129.607315,214.785706 128.543823,215.213196 
	C128.207703,215.253586 128.010361,215.007812 128.046692,214.693008 
	C128.287903,214.132874 128.526291,213.926193 128.798203,213.758194 
z"/>
<path fill="#EBEBEB" opacity="1.000000" stroke="none" 
	d="
M160.886658,184.739685 
	C160.595306,184.825241 160.192047,184.727158 160.124634,184.519852 
	C160.061020,184.324234 160.350815,184.013718 160.485153,183.753738 
	C160.630569,184.005264 160.775986,184.256805 160.886658,184.739685 
z"/>
<path fill="#E2E2E2" opacity="1.000000" stroke="none" 
	d="
M195.855759,146.906265 
	C195.802429,147.178192 195.453384,147.134933 195.279724,147.118149 
	C195.176163,146.690231 195.246246,146.279083 195.316315,145.867950 
	C195.513901,146.123413 195.711502,146.378876 195.855759,146.906265 
z"/>
<path fill="#454545" opacity="1.000000" stroke="none" 
	d="
M123.833580,212.040039 
	C123.988693,212.473145 123.970345,212.802063 123.943848,213.625061 
	C123.435219,213.609802 122.934738,213.100449 122.685890,212.319641 
	C123.142677,211.780853 123.383537,211.743408 123.833580,212.040039 
z"/>
<path fill="#DFDFDF" opacity="1.000000" stroke="none" 
	d="
M175.436218,172.916107 
	C174.977798,172.827972 174.690750,172.670334 174.327225,172.274963 
	C174.674362,172.105026 175.097977,172.172806 175.840790,172.296860 
	C176.000519,172.545242 175.816376,172.709717 175.436218,172.916107 
z"/>
<path fill="#B5B5B5" opacity="1.000000" stroke="none" 
	d="
M178.151306,168.898376 
	C177.750366,168.512634 177.472519,168.061401 177.194687,167.610168 
	C177.432892,167.629684 177.671112,167.649185 178.033508,168.001465 
	C178.342392,168.466125 178.381302,168.632339 178.151306,168.898376 
z"/>
<path fill="#E5E5E5" opacity="1.000000" stroke="none" 
	d="
M179.017471,165.995514 
	C179.307312,166.160019 179.597137,166.324539 179.939072,166.746490 
	C179.790543,167.046066 179.587738,167.067825 179.230164,167.081055 
	C178.841583,166.967407 178.605591,166.841888 178.450531,166.342224 
	C178.531433,165.968079 179.017471,165.995514 179.017471,165.995514 
z"/>
<path fill="#E5E5E5" opacity="1.000000" stroke="none" 
	d="
M204.074692,138.060760 
	C203.954056,137.981949 204.224014,137.935577 204.212646,137.893494 
	C204.201294,137.851425 204.195328,138.139572 204.074692,138.060760 
z"/>
<path fill="#DFDFDF" opacity="1.000000" stroke="none" 
	d="
M184.602570,163.660675 
	C184.404083,163.683731 184.334015,163.594238 184.263947,163.504761 
	C184.419632,163.519211 184.575302,163.533676 184.602570,163.660675 
z"/>
<path fill="#DFDFDF" opacity="1.000000" stroke="none" 
	d="
M181.119476,164.179901 
	C180.789459,164.327362 180.451538,164.505371 179.874161,164.381622 
	C179.885468,164.045792 180.136230,164.011734 180.754089,164.074554 
	C181.121201,164.171463 181.111542,164.210449 181.119476,164.179901 
z"/>
<path fill="#DFDFDF" opacity="1.000000" stroke="none" 
	d="
M185.553772,165.553772 
	C185.470978,165.612900 185.446747,165.380386 185.446747,165.380386 
	C185.446747,165.380386 185.636581,165.494629 185.553772,165.553772 
z"/>
<path fill="#454545" opacity="1.000000" stroke="none" 
	d="
M122.576584,210.638809 
	C123.052483,210.932312 123.064949,211.160583 123.023544,211.727478 
	C122.684158,211.568604 122.398651,211.071091 122.576584,210.638809 
z"/>
<path fill="#E2E2E2" opacity="1.000000" stroke="none" 
	d="
M120.480499,210.394531 
	C120.606430,210.316788 120.671814,210.621658 120.671814,210.621658 
	C120.671814,210.621658 120.354561,210.472260 120.480499,210.394531 
z"/>
<path fill="#454545" opacity="1.000000" stroke="none" 
	d="
M124.379379,208.519531 
	C124.314041,209.160339 124.069916,209.317383 123.391449,209.503632 
	C123.371613,209.033813 123.786102,208.534775 124.379379,208.519531 
z"/>
<path fill="#333333" opacity="1.000000" stroke="none" 
	d="
M176.660034,160.981873 
	C177.028763,161.141205 177.047745,161.329529 177.029388,161.799255 
	C176.764801,161.724060 176.537537,161.367447 176.660034,160.981873 
z"/>
<path fill="#383838" opacity="1.000000" stroke="none" 
	d="
M216.255035,131.115952 
	C215.986664,130.902756 215.962280,130.722076 215.968033,130.269562 
	C215.998154,129.997742 216.472122,129.887070 216.715393,129.889923 
	C216.967575,130.105392 216.976501,130.318039 216.988159,130.850739 
	C216.990891,131.170822 216.499054,131.148483 216.255035,131.115952 
z"/>
<path fill="#383838" opacity="1.000000" stroke="none" 
	d="
M181.380280,166.680801 
	C181.786942,166.887497 182.001984,167.257645 182.217041,167.627792 
	C181.833969,167.686188 181.450897,167.744583 180.943283,167.494568 
	C180.942062,167.072174 181.065369,166.958206 181.380280,166.680801 
z"/>
<path fill="#B5B5B5" opacity="1.000000" stroke="none" 
	d="
M217.596863,135.549530 
	C217.495850,135.629578 217.457321,135.332657 217.457321,135.332657 
	C217.457321,135.332657 217.697861,135.469498 217.596863,135.549530 
z"/>
<path fill="#191919" opacity="1.000000" stroke="none" 
	d="
M171.018372,170.761124 
	C171.372803,171.082474 171.238983,171.292740 171.227448,171.856537 
	C170.978088,172.190063 170.606445,172.170013 170.234818,172.149963 
	C170.333237,171.649994 170.431671,171.150009 171.018372,170.761124 
z"/>
<path fill="#242424" opacity="1.000000" stroke="none" 
	d="
M82.747948,185.073380 
	C83.016487,185.049072 83.009659,185.415497 83.008026,185.598709 
	C82.830727,185.553848 82.655067,185.325760 82.747948,185.073380 
z"/>
<path fill="#FCFCFC" opacity="1.000000" stroke="none" 
	d="
M128.876587,213.448944 
	C128.526291,213.926193 128.287903,214.132874 127.946785,214.571121 
	C127.352234,214.833206 126.893936,214.902374 126.087280,214.953445 
	C126.004166,214.130325 126.269394,213.325302 126.923988,211.973862 
	C127.454361,211.340118 127.598854,211.249725 127.806549,211.152618 
	C128.043243,211.167145 128.220215,211.185333 128.663422,211.220047 
	C128.938080,211.870956 128.946518,212.505325 128.876587,213.448944 
z"/>
<path fill="#FCFCFC" opacity="1.000000" stroke="none" 
	d="
M115.985947,118.989380 
	C103.776962,130.076050 91.838783,140.933228 79.693810,151.978470 
	C73.399178,145.050827 67.299431,138.337662 61.082779,131.495819 
	C85.537003,109.245796 109.779182,87.188698 134.276611,64.899368 
	C140.527756,71.775101 146.637924,78.495758 152.873611,85.354492 
	C140.552917,96.594597 128.404831,107.677238 115.985947,118.989380 
z"/>
<path fill="#F38120" opacity="1.000000" stroke="none" 
	d="
M41.526592,75.523209 
	C60.243969,58.468773 78.705566,41.656513 97.449242,24.587376 
	C103.669052,31.398277 109.702698,38.005322 116.113144,45.024982 
	C91.782623,67.181587 67.583076,89.218918 42.977489,111.626015 
	C36.752396,104.860077 30.716110,98.299347 24.277075,91.300873 
	C30.045982,86.027000 35.658394,80.896187 41.526592,75.523209 
z"/>
<path fill="#00A450" opacity="1.000000" stroke="none" 
	d="
M113.761673,189.210693 
	C108.702530,183.714661 103.888420,178.472687 98.816544,172.950012 
	C123.227303,150.709976 147.385254,128.700256 171.958145,106.312500 
	C178.279297,113.195518 184.296646,119.747749 190.692215,126.711800 
	C166.236526,148.976242 142.058578,170.987839 117.178932,193.638260 
	C115.994247,192.079636 115.000473,190.772186 113.761673,189.210693 
z"/>
<path fill="#FCFCFC" opacity="1.000000" stroke="none" 
	d="
M37.881474,135.866302 
	C38.638042,135.632599 39.138615,135.842957 39.639191,136.053299 
	C39.433563,136.387115 39.152046,137.029755 39.035480,137.001114 
	C38.538883,136.879089 38.091084,136.558472 37.881474,135.866302 
z"/>
<path fill="#333333" opacity="1.000000" stroke="none" 
	d="
M172.849136,169.204361 
	C172.849136,169.204361 172.475571,169.025238 172.275177,168.972778 
	C171.871994,168.340607 171.669205,167.760880 171.448792,167.130768 
	C172.212616,167.061615 172.865845,167.002457 173.780975,167.153137 
	C174.120087,167.608383 174.149475,167.859390 173.821167,168.537979 
	C173.290604,169.041412 173.069870,169.122879 172.849136,169.204361 
z"/>
<path fill="#FCFCFC" opacity="1.000000" stroke="none" 
	d="
M178.854233,165.607162 
	C179.017471,165.995514 178.531433,165.968079 178.288147,165.975632 
	C177.843460,165.879700 177.642075,165.776215 177.280365,165.373291 
	C177.157364,164.770447 177.173538,164.465897 177.108368,163.939056 
	C177.273331,163.869965 177.498520,164.022064 177.924500,164.492157 
	C178.125275,164.810165 178.042175,164.681335 178.042175,164.681335 
	C178.258453,164.860489 178.474731,165.039658 178.854233,165.607162 
z"/>
<path fill="#383838" opacity="1.000000" stroke="none" 
	d="
M216.670944,127.191605 
	C216.805954,127.433121 216.796371,127.701813 216.388046,127.910049 
	C216.040451,127.530945 216.219467,127.320679 216.670944,127.191605 
z"/>
<path fill="#383838" opacity="1.000000" stroke="none" 
	d="
M217.312271,128.891113 
	C217.197815,128.723740 217.309357,128.454788 217.857376,128.167236 
	C218.293854,128.148651 218.279724,128.170197 218.294586,128.170715 
	C218.085800,128.418976 217.828735,128.625076 217.312271,128.891113 
z"/>
<path fill="#7C7C7C" opacity="1.000000" stroke="none" 
	d="
M172.908646,169.445251 
	C173.069870,169.122879 173.290604,169.041412 173.771973,168.721954 
	C174.061920,168.766830 174.091263,169.049744 173.962036,169.728760 
	C173.429352,170.160751 173.150925,170.014511 172.908646,169.445251 
z"/>
<path fill="#DFDFDF" opacity="1.000000" stroke="none" 
	d="
M178.901703,162.962830 
	C178.661102,163.020569 178.376724,162.780350 177.995193,162.275513 
	C178.218002,162.228882 178.537949,162.446869 178.901703,162.962830 
z"/>
<path fill="#DFDFDF" opacity="1.000000" stroke="none" 
	d="
M178.121948,164.799698 
	C178.042175,164.681335 178.125275,164.810165 178.120392,164.849609 
	C178.115494,164.889069 178.150421,164.679535 178.256638,164.680969 
	C178.362854,164.682388 178.201736,164.918060 178.121948,164.799698 
z"/>
</svg>